<?xml version="1.0" standalone="no"?>
<!DOCTYPE svg PUBLIC "-//W3C//DTD SVG 20010904//EN"
 "http://www.w3.org/TR/2001/REC-SVG-20010904/DTD/svg10.dtd">
<svg version="1.0" xmlns="http://www.w3.org/2000/svg"
 width="1000.000000pt" height="1000.000000pt" viewBox="0 0 1000.000000 1000.000000"
 preserveAspectRatio="xMidYMid meet">
<metadata>
Created by potrace 1.11, written by Peter Selinger 2001-2013
</metadata>
<g transform="translate(0.000000,1000.000000) scale(0.100000,-0.100000)"
fill="#000000" stroke="none">
<path d="M5230 9145 c-74 -20 -99 -37 -245 -175 -246 -233 -418 -364 -608
-464 -109 -58 -131 -70 -137 -76 -3 -3 -18 -16 -35 -29 -82 -63 -182 -163
-221 -221 -48 -71 -51 -82 -29 -100 20 -16 43 -6 205 90 231 137 352 187 493
205 98 13 117 14 117 7 0 -10 -104 -130 -143 -166 -163 -147 -458 -336 -632
-406 -92 -36 -192 -88 -270 -138 -130 -86 -354 -331 -310 -340 9 -2 50 18 93
45 119 74 150 87 217 87 47 1 71 -5 108 -26 60 -34 80 -28 195 60 138 105 203
138 312 158 91 16 164 70 315 233 28 30 73 68 100 86 54 35 156 87 161 82 2
-2 -8 -20 -22 -40 -14 -21 -65 -118 -114 -215 -57 -112 -108 -199 -140 -237
-79 -95 -111 -140 -152 -216 -21 -39 -38 -73 -38 -75 0 -2 8 -4 18 -4 12 -1 9
-5 -11 -16 -40 -22 -268 -117 -457 -191 -91 -36 -169 -68 -174 -73 -9 -9 68
-48 113 -57 75 -17 195 -3 276 32 59 25 120 47 144 52 14 2 28 6 32 9 15 9
129 15 129 7 0 -5 -36 -44 -80 -87 -77 -75 -81 -78 -99 -62 -18 17 -22 14 -95
-70 -72 -84 -75 -89 -59 -107 16 -17 19 -16 63 33 l45 52 25 -27 c30 -33 69
-53 93 -50 16 3 16 1 -2 -23 -10 -15 -30 -51 -45 -80 -25 -50 -28 -52 -59 -46
-60 12 -126 11 -168 -4 -23 -7 -88 -42 -145 -77 -56 -35 -104 -62 -106 -60 -8
9 -159 -75 -217 -119 -83 -64 -195 -188 -302 -335 -83 -115 -89 -125 -76 -145
8 -11 19 -21 25 -21 6 0 206 137 444 305 237 168 437 307 442 309 6 2 13 7 16
10 13 16 80 61 80 54 0 -13 -99 -164 -151 -229 -37 -47 -57 -63 -91 -73 -87
-26 -258 -131 -392 -239 -75 -61 -146 -144 -178 -205 -20 -40 -37 -147 -23
-147 4 0 66 46 138 103 142 111 165 127 153 108 -10 -16 3 -51 20 -51 20 0 18
-7 -20 -59 -45 -61 -126 -137 -201 -188 -58 -39 -246 -133 -295 -148 -3 -1
-21 -8 -41 -17 -20 -9 -47 -19 -60 -23 -13 -4 -66 -27 -118 -51 -92 -43 -93
-44 -78 -66 8 -13 20 -22 27 -20 6 1 27 5 48 8 20 3 69 12 107 20 94 20 145
27 145 20 0 -17 -83 -155 -150 -251 -69 -98 -214 -317 -355 -535 -26 -41 -57
-87 -67 -102 -74 -106 153 120 334 332 68 80 147 169 176 198 29 29 52 57 52
62 0 21 256 309 317 357 l67 52 24 -57 c13 -31 26 -59 28 -61 3 -3 27 17 56
45 56 54 55 46 -6 -34 l-39 -53 20 -21 21 -21 139 113 c125 103 322 293 508
491 181 193 250 259 331 314 150 102 217 155 277 218 82 87 80 89 -46 38 -25
-10 -27 -9 -18 8 14 25 69 71 86 71 7 0 18 -6 24 -14 10 -12 80 -53 271 -159
53 -29 58 -35 80 -95 27 -71 90 -159 170 -237 52 -51 119 -150 108 -160 -7 -7
-104 48 -193 110 -108 75 -184 113 -246 121 -49 7 -51 7 -61 5 -5 0 26 -47 67
-103 41 -56 72 -105 67 -109 -12 -13 -116 27 -168 63 -27 19 -75 45 -106 56
-32 12 -84 32 -115 44 -32 12 -76 30 -97 41 -37 18 -39 18 -31 0 16 -38 17
-63 4 -64 -59 -3 -126 -28 -100 -37 20 -7 165 -104 173 -116 12 -18 10 -20
-64 -55 l-72 -33 -27 33 -27 34 -64 -59 c-34 -33 -99 -94 -143 -136 -171 -163
-287 -253 -345 -265 -20 -4 -54 -26 -80 -49 -25 -23 -72 -57 -105 -74 -96 -51
-228 -155 -279 -218 -67 -83 -64 -81 -166 -169 -105 -91 -136 -128 -175 -205
-75 -149 -200 -314 -356 -469 -79 -79 -97 -101 -92 -119 3 -12 13 -22 21 -22
9 0 89 49 177 109 171 115 254 162 324 181 54 14 131 24 131 16 0 -7 -116
-185 -155 -238 -23 -31 -26 -40 -15 -53 19 -22 27 -20 107 36 46 31 81 49 95
47 17 -2 -30 -39 -189 -150 -116 -81 -230 -156 -255 -167 -42 -18 -161 -23
-186 -7 -16 9 -75 -20 -103 -51 -14 -15 -37 -48 -52 -73 -32 -58 -91 -112
-242 -225 -149 -112 -245 -207 -278 -277 -14 -29 -23 -57 -20 -61 3 -5 8 -5
12 0 3 5 13 12 21 15 8 3 133 85 278 182 145 97 276 183 292 191 26 14 29 14
24 0 -8 -21 1 -19 65 12 33 16 82 54 119 90 96 98 353 260 532 336 54 23 111
40 117 34 2 -3 -37 -50 -88 -104 -150 -159 -439 -504 -439 -523 0 -13 60 0
107 22 25 12 90 67 155 132 118 117 174 154 242 158 30 2 39 -1 41 -13 6 -38
-35 -98 -116 -169 -135 -117 -208 -215 -265 -354 -27 -64 -64 -176 -59 -176 3
0 337 282 395 333 14 13 52 45 85 72 33 28 62 52 65 55 24 26 394 334 399 333
11 -5 8 -27 -16 -94 -20 -59 -30 -96 -32 -124 -1 -5 -8 1 -17 13 -17 24 -32
20 -77 -18 -12 -10 -33 -27 -46 -38 -24 -19 -25 -20 -8 -46 l18 -27 45 33 c25
17 50 38 56 45 16 20 29 15 23 -9 -3 -13 -7 -36 -10 -53 -2 -16 -15 -49 -28
-74 -35 -69 -86 -91 -218 -96 -112 -4 -185 -23 -262 -69 -55 -32 -176 -136
-204 -174 l-23 -31 66 -83 c37 -46 69 -83 73 -83 4 0 120 83 259 185 139 102
257 187 263 189 6 2 8 -14 5 -43 -17 -144 -53 -182 -306 -331 -237 -138 -1015
-695 -1044 -747 l-21 -37 20 -20 20 -20 45 28 c25 16 160 99 300 186 140 87
271 167 290 180 98 63 170 105 179 105 4 0 14 -7 21 -15 13 -16 9 -21 -322
-390 -43 -48 -45 -56 -20 -78 17 -15 23 -13 100 30 44 25 89 53 99 62 10 9 36
29 58 46 22 16 105 95 185 175 l145 146 167 -1 c92 0 169 -3 172 -6 3 -3 8
-25 10 -50 3 -24 7 -62 10 -84 10 -79 21 -196 31 -340 3 -44 8 -105 10 -135 3
-30 7 -89 10 -130 8 -108 21 -235 30 -310 2 -19 7 -55 10 -80 2 -25 7 -54 9
-65 2 -11 7 -42 10 -70 4 -27 9 -58 12 -67 5 -16 9 -35 19 -88 3 -14 7 -35 10
-47 3 -13 7 -33 10 -45 9 -45 57 -204 69 -227 l11 -24 6 29 c3 16 4 49 3 74
-4 74 -15 270 -20 345 -2 39 -6 106 -9 150 -2 44 -7 127 -10 185 -10 159 -25
437 -30 525 -14 267 -20 546 -13 582 11 60 86 110 151 101 24 -3 22 13 33
-238 7 -170 11 -253 13 -295 1 -17 8 -21 38 -20 24 0 37 5 38 15 16 99 51 285
71 365 9 39 18 97 20 130 11 191 21 224 89 291 46 45 64 54 66 32 0 -7 2 -20
4 -29 1 -8 6 -41 9 -71 4 -31 8 -64 10 -74 2 -11 7 -44 10 -74 4 -30 8 -66 10
-80 7 -41 18 -124 19 -137 1 -36 39 20 53 79 2 10 6 28 10 40 3 13 7 86 8 163
2 77 7 160 10 185 9 56 42 144 72 188 l22 33 39 -58 c60 -87 65 -100 71 -177
12 -152 5 -530 -13 -710 -3 -23 -7 -70 -9 -106 -3 -36 -8 -91 -11 -122 -5 -57
-8 -92 -20 -233 -4 -38 -8 -86 -10 -106 -2 -20 -7 -70 -10 -110 -3 -41 -8 -90
-10 -109 -2 -19 -7 -69 -10 -110 -3 -41 -8 -95 -10 -120 -2 -25 -7 -92 -10
-150 -3 -58 -8 -118 -9 -133 -9 -80 25 33 61 203 4 19 7 37 8 40 11 51 15 69
19 93 3 15 7 35 10 45 3 9 7 33 10 52 3 19 7 44 10 55 2 11 7 40 11 65 4 25 9
54 11 65 2 11 6 38 9 60 3 22 7 51 10 65 5 26 14 82 19 127 6 42 16 114 21
153 12 81 24 199 40 400 6 77 11 125 21 195 3 22 17 60 32 85 23 36 34 45 57
46 17 1 37 2 45 3 9 0 28 26 43 56 42 87 56 88 173 17 188 -114 236 -133 342
-136 54 -2 122 8 140 20 2 1 -4 33 -13 70 -9 38 -18 76 -20 84 -2 8 -10 43
-19 76 -9 34 -16 71 -16 81 0 11 -11 30 -25 43 -14 13 -25 20 -25 16 0 -5 -6
-3 -13 3 -8 6 -22 12 -33 14 -133 24 -224 85 -262 177 l-21 50 21 -11 c12 -6
75 -43 142 -82 117 -68 142 -76 196 -64 66 15 77 18 110 24 53 9 166 3 189
-11 3 -2 24 -7 46 -10 22 -4 48 -9 57 -12 9 -3 25 -6 35 -8 10 -2 36 -9 58
-14 22 -6 51 -13 65 -15 14 -3 43 -10 65 -15 22 -6 51 -13 65 -16 14 -2 43 -8
65 -14 48 -11 58 -9 107 11 27 11 42 26 53 53 8 20 14 38 13 39 -2 2 -28 5
-58 9 -127 13 -205 53 -358 183 -42 36 -78 68 -80 72 -1 3 64 5 145 3 l148 -3
27 38 26 38 -204 103 c-213 108 -263 146 -291 221 -12 32 0 44 23 22 12 -13
242 -127 274 -136 14 -4 30 -11 35 -15 18 -14 219 -79 340 -110 127 -33 235
-44 287 -29 18 5 57 25 87 46 l56 37 -30 8 c-16 4 -41 10 -55 12 -14 3 -35 7
-47 10 -13 3 -31 8 -40 10 -80 20 -190 63 -298 118 -109 55 -170 92 -383 231
l-184 121 49 19 c61 24 161 30 219 12 24 -7 44 -11 44 -9 0 2 17 -6 38 -18 20
-11 55 -30 77 -41 22 -12 42 -24 45 -27 3 -3 16 -11 30 -18 14 -7 50 -27 80
-45 63 -38 140 -70 140 -59 -1 10 -80 96 -205 222 -97 97 -105 108 -109 150
-2 25 -5 48 -5 52 -1 4 -22 10 -48 14 -27 5 -51 9 -55 10 -5 1 -14 2 -22 3 -7
0 -49 31 -92 67 -222 186 -530 399 -676 468 -50 24 -140 136 -172 215 -14 36
-26 66 -26 69 0 2 12 1 28 -3 52 -13 77 -17 140 -19 34 -1 62 0 62 4 0 15
-263 212 -311 233 -59 26 -72 38 -88 80 l-11 28 98 -7 c53 -3 119 -7 146 -8
43 -2 53 -7 78 -37 29 -35 64 -93 126 -209 19 -36 52 -88 73 -117 42 -56 47
-68 26 -60 -8 3 -19 2 -26 -2 -17 -11 62 -115 130 -174 99 -84 363 -280 404
-298 39 -18 183 -27 198 -13 3 4 -94 83 -216 177 -122 93 -211 167 -197 163
89 -24 179 -47 205 -52 17 -2 38 -7 48 -10 9 -3 17 -3 17 -1 0 3 -148 94 -330
203 -181 109 -330 204 -330 210 0 7 13 17 30 22 33 12 70 4 127 -27 21 -11 66
-31 101 -45 48 -19 87 -46 160 -114 148 -135 253 -222 271 -223 23 -2 67 -7
101 -13 17 -2 30 -2 30 0 0 3 -32 43 -71 90 -40 47 -70 86 -68 88 2 2 49 -18
104 -45 171 -82 357 -152 512 -195 52 -14 96 -24 98 -22 11 11 -39 69 -72 84
-21 10 -105 58 -188 107 -199 119 -381 247 -533 377 -53 44 -53 45 -33 62 12
9 21 19 21 23 0 8 -40 54 -123 143 l-49 53 -29 -27 c-16 -15 -25 -32 -22 -38
3 -6 -32 25 -78 69 -159 150 -266 244 -305 266 -113 66 -126 69 -175 44 -21
-11 -34 -13 -48 -6 -27 15 -80 102 -107 175 -22 62 -22 62 -2 75 19 12 18 13
-15 44 -51 48 -97 88 -150 130 l-47 39 40 45 c35 40 38 48 27 62 -8 9 -57 68
-109 132 -110 132 -176 194 -251 237 -53 30 -92 72 -115 125 -6 15 -7 27 -2
27 5 0 60 -25 123 -55 138 -66 194 -113 226 -186 50 -118 77 -164 120 -208 44
-44 70 -61 156 -96 22 -9 74 -37 116 -62 l76 -45 -2 -54 -1 -54 73 0 74 0 92
-68 c187 -139 377 -239 509 -266 13 -3 34 -8 48 -11 52 -11 80 -15 80 -10 0
15 -287 200 -427 275 -68 35 -125 85 -147 128 -17 34 -31 96 -19 89 4 -3 27
-8 49 -11 22 -4 49 -8 59 -10 11 -2 40 -7 65 -10 25 -3 55 -8 66 -10 30 -6 80
-14 139 -22 28 -3 58 -8 67 -9 144 -28 356 -22 421 11 49 25 117 68 117 75 0
3 -28 7 -62 8 -157 6 -375 20 -404 25 -11 2 -41 7 -69 10 -61 9 -90 27 -99 62
-10 40 -52 89 -110 131 -63 45 -136 113 -136 128 0 5 23 31 51 57 l52 47 -29
12 c-16 6 -57 20 -91 30 -42 13 -68 28 -80 45 -75 108 -132 141 -313 179 -69
14 -132 27 -140 29 -8 2 -22 6 -30 8 -8 1 -23 11 -35 22 -26 24 -106 76 -118
76 -5 0 1 -12 12 -27 12 -14 19 -28 17 -30 -2 -3 -27 5 -55 17 -53 23 -134
101 -151 145 -7 19 -15 25 -28 21 -9 -3 -30 -8 -47 -11 -16 -2 -39 -7 -50 -9
-29 -5 -104 -18 -110 -18 -2 0 -27 -6 -54 -13 -46 -12 -50 -11 -54 6 -12 46
62 138 143 175 19 9 52 30 73 47 34 27 40 28 67 17 25 -10 29 -17 26 -44 -4
-36 2 -56 16 -56 6 0 24 -6 41 -14 18 -7 48 -21 67 -29 19 -8 67 -27 105 -42
39 -15 79 -31 90 -35 41 -17 89 -30 110 -30 12 0 65 -20 116 -44 216 -101 402
-138 573 -114 34 5 69 10 79 11 16 1 15 4 -5 19 -13 10 -28 18 -34 18 -6 0
-51 19 -100 41 -49 23 -114 52 -144 65 -30 13 -48 24 -40 25 58 5 161 18 194
25 12 2 50 6 86 10 36 3 78 7 94 10 40 7 117 51 139 80 l18 24 -98 1 c-151 2
-315 13 -368 24 -11 3 -31 7 -45 9 -119 19 -325 101 -390 155 l-25 20 25 1
c39 2 74 10 82 18 12 12 -62 93 -99 108 -18 8 -33 15 -33 17 0 1 79 2 175 2
96 0 175 3 175 8 0 5 -48 65 -106 133 -100 118 -104 124 -69 109 21 -8 40 -14
42 -11 2 2 -36 36 -84 76 -89 74 -178 162 -215 213 l-20 28 29 -5 c15 -3 60
-8 98 -11 74 -6 149 -13 213 -20 128 -13 295 -54 399 -97 15 -6 30 -12 33 -12
3 -1 49 -19 104 -41 95 -38 99 -39 112 -20 8 10 14 21 14 24 -1 6 -51 41 -312
220 -59 40 -108 76 -108 80 1 24 24 31 115 36 231 12 290 16 294 21 7 7 -32
46 -55 54 -11 5 -68 11 -125 15 -57 3 -131 8 -164 10 -80 6 -197 13 -325 20
-130 7 -222 15 -230 20 -4 2 -22 7 -40 10 -81 14 -214 98 -290 182 -46 52
-130 178 -130 196 0 4 112 7 249 7 l249 0 -3 25 c-1 14 -4 27 -6 29 -2 2 -35
7 -74 11 -123 13 -132 14 -181 20 -27 3 -87 8 -134 10 -47 3 -101 7 -120 9
-19 2 -55 -2 -80 -9z m21 -233 c61 -24 165 -148 172 -203 2 -25 2 -25 -136
-34 -56 -3 -129 -8 -162 -10 -137 -11 -215 -14 -215 -7 0 24 87 175 118 205
60 59 148 78 223 49z m-335 -443 c7 -12 -44 -69 -63 -69 -21 0 -15 22 14 52
29 30 38 34 49 17z m310 -46 c-1 -1 -20 -3 -44 -6 -35 -3 -42 -1 -40 12 4 22
71 32 79 11 4 -8 6 -16 5 -17z m299 -307 c11 -2 43 -7 70 -10 201 -27 305 -79
356 -177 l18 -37 -40 -10 c-60 -15 -247 -7 -319 13 -8 2 -28 7 -45 10 -16 2
-41 7 -55 10 -14 3 -47 8 -75 11 -27 3 -56 7 -63 9 -7 3 -1 -11 14 -30 14 -19
22 -35 16 -35 -21 0 -84 112 -96 173 -3 12 -7 33 -10 46 -3 14 -11 29 -18 33
-12 9 202 4 247 -6z m-270 -260 c81 -12 165 -56 165 -85 0 -22 54 -71 78 -71
28 0 217 -106 217 -121 0 -9 -9 -13 -22 -12 -13 2 -23 -1 -23 -6 0 -10 -9 -6
-215 74 -66 25 -145 56 -175 68 -30 12 -57 22 -60 22 -3 1 -14 5 -25 10 -86
35 -140 55 -146 55 -5 0 -9 -37 -11 -82 l-3 -82 -80 -54 c-119 -80 -186 -112
-274 -128 l-23 -5 22 28 c12 15 65 75 118 132 148 159 256 239 349 260 37 8
45 7 108 -3z m-401 -895 c-35 -34 -191 -94 -158 -61 26 27 138 85 165 87 22 2
21 1 -7 -26z m-194 -101 c-6 -11 -16 -20 -23 -20 -7 0 10 -11 37 -24 26 -14
53 -29 58 -34 6 -6 -17 -46 -61 -107 -39 -54 -72 -103 -74 -108 -4 -12 -117
19 -117 32 0 5 35 57 77 117 45 62 72 109 65 112 -7 2 0 13 16 27 33 30 36 30
22 5z m367 -62 c28 -26 44 -78 30 -95 -14 -19 -25 -16 -53 15 -13 15 -39 42
-56 60 -25 25 -30 35 -20 41 22 13 74 2 99 -21z m-158 -143 c16 -22 30 -50 33
-62 5 -20 2 -23 -20 -23 l-27 0 33 -26 c36 -29 41 -60 21 -141 -16 -63 -105
-158 -179 -191 -122 -54 -182 -84 -325 -164 -82 -46 -174 -98 -202 -116 -29
-17 -53 -29 -53 -27 0 3 15 33 33 67 41 79 99 136 173 171 32 15 66 31 74 36
8 4 42 48 75 97 33 49 99 127 147 174 108 107 132 154 137 274 1 18 3 18 27
-5 14 -13 38 -42 53 -64z m-964 -1007 c-6 -4 -24 -9 -40 -12 l-28 -5 34 35
c33 35 34 35 40 12 3 -13 0 -26 -6 -30z m1180 -60 c71 -65 99 -114 98 -174 -1
-39 -29 -154 -38 -154 -10 0 -295 286 -295 296 0 7 25 37 55 68 l55 57 31 -18
c17 -10 59 -44 94 -75z m-265 -196 c0 -7 -11 -30 -25 -51 -36 -54 -37 -95 -4
-192 16 -46 30 -100 31 -119 3 -35 3 -35 -37 -34 -22 0 -47 4 -56 8 -12 5 -20
-3 -33 -39 -16 -41 -100 -130 -123 -130 -5 0 -21 -6 -38 -12 -30 -12 -182 -53
-196 -53 -8 0 212 353 235 377 9 10 22 10 64 -1 29 -8 54 -10 57 -5 7 10 35
103 41 133 4 22 44 147 51 159 6 10 32 -23 33 -41z m611 -312 c68 -114 83
-150 85 -205 3 -85 -4 -89 -86 -47 -72 38 -91 64 -104 142 -2 14 -16 47 -30
73 -15 26 -24 52 -21 58 11 17 100 69 106 61 3 -4 26 -41 50 -82z m-156 -76
c11 -8 17 -14 15 -14 -3 0 -19 -4 -36 -9 -40 -11 -58 0 -49 28 7 24 31 22 70
-5z m545 -114 c40 -16 79 -30 86 -30 8 0 14 -4 14 -10 0 -5 -5 -10 -11 -10 -8
0 -9 -4 0 -13 6 -8 9 -16 6 -19 -3 -3 12 -25 33 -49 34 -38 82 -117 82 -134 0
-8 -48 5 -105 28 -83 33 -154 115 -170 195 -2 9 -6 29 -10 45 -4 15 -5 27 -2
27 2 0 37 -13 77 -30z m-1047 -148 c15 -17 14 -23 -24 -95 -55 -106 -63 -107
-61 -12 1 65 7 88 31 106 29 23 34 24 54 1z m247 -134 c40 -17 76 -60 103
-122 l18 -42 -83 -83 -83 -83 -77 82 c-57 59 -78 88 -78 108 0 14 18 57 41 95
l41 69 41 -5 c23 -2 58 -11 77 -19z m-439 -5 c0 -5 3 -21 6 -38 8 -52 -7 -110
-45 -174 -28 -48 -51 -72 -102 -106 -36 -23 -82 -50 -102 -58 -21 -9 -55 -30
-77 -47 -68 -55 -138 -67 -266 -45 -22 4 -79 8 -127 9 -98 1 -124 14 -86 41
72 51 378 263 406 280 21 13 31 20 67 47 129 98 120 80 -38 -77 l-168 -166 58
2 c97 4 143 32 229 140 34 42 91 97 143 135 85 63 100 71 102 57z m1048 -294
c43 -29 60 -48 65 -70 3 -16 6 -30 6 -32 26 -68 86 -283 80 -285 -5 -2 -30 13
-56 33 -26 20 -64 45 -85 55 -70 36 -118 125 -114 210 2 52 24 130 36 130 5 0
35 -18 68 -41z m-904 -256 c10 -32 20 -66 22 -77 5 -27 -32 -80 -76 -109 l-39
-26 -22 55 c-22 52 -24 67 -21 107 1 19 88 107 106 107 6 0 20 -26 30 -57z
m25 -263 c-18 -64 -55 -108 -127 -153 -76 -47 -80 -45 -43 29 16 31 152 153
172 154 4 0 3 -14 -2 -30z m-57 -332 c15 -12 10 -20 -48 -79 l-64 -66 -16 24
c-9 14 -17 36 -18 51 -2 22 6 31 48 54 56 31 74 34 98 16z m-136 -540 c4 -33
2 -38 -28 -54 -18 -9 -46 -20 -61 -25 l-29 -8 37 67 c61 110 57 105 67 79 5
-12 11 -39 14 -59z"/>
<path d="M6321 5777 c-8 -11 -1 -23 33 -55 39 -36 45 -39 58 -25 14 13 11 19
-27 54 -47 44 -48 44 -64 26z"/>
<path d="M3170 4528 c-74 -61 -137 -114 -138 -120 -7 -16 19 -38 31 -27 7 5
73 53 147 105 74 53 134 101 132 108 -2 6 -11 19 -20 28 -16 16 -25 11 -152
-94z"/>
<path d="M2659 4271 c-15 -14 -52 -42 -83 -61 -120 -73 -196 -194 -213 -340
l-5 -45 47 68 c95 139 258 362 267 365 11 5 31 42 21 41 -4 -1 -20 -13 -34
-28z"/>
<path d="M3250 3135 c-7 -9 -22 -75 -16 -75 1 0 21 20 45 44 l43 44 -32 -2
c-17 0 -35 -5 -40 -11z"/>
</g>
</svg>
